<?xml version="1.0" standalone="no"?>
<svg xmlns="http://www.w3.org/2000/svg" viewBox="0 0 184 71" width="184" height="71"><g fill="#f29b18" color="#f29b18" transform="translate(69.704 0) scale(0.0916667) "><svg width="480.0" height="480.0" x="0.0" y="0.0" viewBox="0 0 480 480"><g><path d="M311,327.8l-11-1.4c1.9-12,1-24.5-1.4-36.5c-6.2-25.9-22.1-48.5-44.6-62.4c-22.6-14.4-49.4-18.7-75.8-12.5   c-5.3,1.4-10.6,2.9-15.8,5.3l-4.3-10.1c5.8-2.4,11.5-4.3,17.8-5.8c28.8-6.7,59-1.9,84,13.9c25.4,15.8,42.7,40.3,49.4,69.6   C312.5,300.5,313,314.4,311,327.8z"></path><path d="M160.3,181l-1.9-8.2l11-2.4l1.9,8.2L160.3,181z M156.5,164.2l-1.9-8.2l11-2.4l1.9,8.2L156.5,164.2z M152.6,147.8l-1.9-8.2   l11-2.4l1.9,8.2L152.6,147.8z M148.8,131.5l-1.9-8.2l11-2.4l1.9,8.2L148.8,131.5z M145,114.7l-1.9-8.2l11-2.4l1.9,8.2L145,114.7z    M141.1,98.4l-1.9-8.2l11-2.4l1.9,8.2L141.1,98.4z M137.3,82.1l-1.9-8.2l11-2.4l1.9,8.2L137.3,82.1z M133.4,65.3l-1.9-8.2l11-2.4   l1.9,8.2L133.4,65.3z"></path><path d="M209.8,176.2l-11-0.5l0.5-8.6l11,0.5L209.8,176.2z M210.2,158.9l-11-0.5l0.5-8.6l11,0.5L210.2,158.9z M211.2,142.1l-11-0.5   l0.5-8.6l11,0.5L211.2,142.1z M211.7,125.3l-11-0.5l0.5-8.6l11,0.5L211.7,125.3z M212.6,108.5l-11-0.5l0.5-8.6l11,0.5L212.6,108.5z    M213.1,91.2l-11-0.5l0.5-8.6l11,0.5L213.1,91.2z M214.1,74.4l-11-0.5l0.5-8.6l11,0.5L214.1,74.4z M214.6,57.6l-11-0.5l0.5-8.6   l11,0.5L214.6,57.6z"></path><path d="M246.7,183.4l-10.6-3.4l2.4-8.2l10.6,3.4L246.7,183.4z M252,167l-10.6-3.4l2.4-8.2l10.6,3.4L252,167z M257.3,150.7   l-10.6-3.4l2.4-8.2l10.6,3.4L257.3,150.7z M262.1,134.9l-10.6-3.4l2.4-8.2l10.6,3.4L262.1,134.9z M267.4,118.6l-10.6-3.4l2.4-8.2   l10.6,3.4L267.4,118.6z M272.6,102.7l-10.6-3.4l2.4-8.2l10.6,3.4L272.6,102.7z M277.4,86.4L266.9,83l2.4-8.2l10.6,3.4L277.4,86.4z    M282.7,70.1l-10.6-3.4l2.4-8.2l10.6,3.4L282.7,70.1z"></path><path d="M280.3,200.2l-9.1-6.2l4.8-7.2l9.1,6.2L280.3,200.2z M289.4,185.8l-9.1-6.2l4.8-7.2l9.1,6.2L289.4,185.8z M299,171.8   l-9.1-6.2l4.8-7.2l9.1,6.2L299,171.8z M308.2,157.4l-9.1-6.2l4.8-7.2l9.1,6.2L308.2,157.4z M317.3,143.5l-9.1-6.2l4.8-7.2l9.1,6.2   L317.3,143.5z M326.9,129.1l-9.1-6.2l4.8-7.2l9.1,6.2L326.9,129.1z M336,114.7l-9.6-5.8l4.8-7.2l9.1,6.2L336,114.7z M345.1,100.8   l-9.1-6.2l4.8-7.2l9.1,6.2L345.1,100.8z"></path><path d="M308.2,228l-7.2-8.2l6.2-5.8l7.2,8.2L308.2,228z M320.6,217l-7.2-8.2l6.2-5.8l7.2,8.2L320.6,217z M333.6,205.4l-7.2-8.2   l6.2-5.8l7.2,8.2L333.6,205.4z M346.1,194.4l-7.2-8.2l6.2-5.8l7.2,8.2L346.1,194.4z M359,183.4l-7.2-8.2l6.2-5.8l7.2,8.2L359,183.4   z M371.5,171.8l-7.2-8.2l6.2-5.8l7.2,8.2L371.5,171.8z M384.5,160.8l-7.2-8.2l6.2-5.8l7.2,8.2L384.5,160.8z M397,149.8l-7.2-8.2   l6.2-5.8l7.2,8.2L397,149.8z"></path><path d="M327.4,260.6l-4.8-10.1l7.7-3.8l4.8,10.1L327.4,260.6z M342.7,253.4l-4.8-10.1l7.7-3.8l4.8,10.1L342.7,253.4z M358.1,245.8   l-4.8-10.1l7.7-3.8l4.8,10.1L358.1,245.8z M373.4,238.6l-4.8-10.1l7.7-3.8l4.8,10.1L373.4,238.6z M388.3,230.9l-4.8-10.1l7.7-3.8   L396,227L388.3,230.9z M403.7,223.7l-4.8-10.1l7.7-3.8l4.8,10.1L403.7,223.7z M419,216l-4.8-10.1l7.7-3.8l4.8,10.1L419,216z    M433.9,208.8l-4.8-10.1l7.7-3.8l4.8,10.1L433.9,208.8z"></path><path d="M269.3,317.3c-0.5-19.2-8.6-37-22.6-50.4c-13.9-13.4-32.2-20.6-51.4-20.6c-16.8,0-33.1,5.8-46.1,16.3l-6.7,5.3l-1.9-8.6   c-10.1-40.8-46.6-69.6-88.3-71l0.5-11c44.2,1.4,83,30.2,96.5,71.5c13.9-9.1,29.8-13.9,46.6-13.9c22.1,0,43.2,8.6,59,24   s25,36,25.9,58.1L269.3,317.3z"></path><path d="M181.9,434.9l-11-2.9c5.3-22.1,20.6-40.3,41.3-49.9c-0.5-2.9-0.5-6.2-0.5-9.1c0-34.6,27.8-62.4,62.4-62.4   c11.5,0,22.6,3.4,32.6,9.1c10.6-29.3,38.4-49.4,70.1-50.4l0.5,11c-29.3,1-54.7,21.1-61.9,49.4l-1.9,8.6l-6.7-5.3   c-9.1-7.2-20.2-11.5-32.2-11.5c-28.3,0-51.4,23-51.4,51.4c0,3.8,0.5,7.7,1.4,11l1,4.8l-4.3,1.9   C201.1,398.4,186.7,414.7,181.9,434.9z"></path></g><g display="none"><g display="inline"><rect x="0" y="0" fill="currentColor" stroke="currentColor" stroke-width="1.000000e-02" stroke-miterlimit="10" width="120" height="120"></rect><rect x="120" y="0" fill="currentColor" stroke="currentColor" stroke-width="1.000000e-02" stroke-miterlimit="10" width="120" height="120"></rect><rect x="240" y="0" fill="currentColor" stroke="currentColor" stroke-width="1.000000e-02" stroke-miterlimit="10" width="120" height="120"></rect><rect x="360" y="0" fill="currentColor" stroke="currentColor" stroke-width="1.000000e-02" stroke-miterlimit="10" width="120" height="120"></rect><rect x="0" y="120" fill="currentColor" stroke="currentColor" stroke-width="1.000000e-02" stroke-miterlimit="10" width="120" height="120"></rect><rect x="120" y="120" fill="currentColor" stroke="currentColor" stroke-width="1.000000e-02" stroke-miterlimit="10" width="120" height="120"></rect><rect x="240" y="120" fill="currentColor" stroke="currentColor" stroke-width="1.000000e-02" stroke-miterlimit="10" width="120" height="120"></rect><rect x="360" y="120" fill="currentColor" stroke="currentColor" stroke-width="1.000000e-02" stroke-miterlimit="10" width="120" height="120"></rect><rect x="0" y="240" fill="currentColor" stroke="currentColor" stroke-width="1.000000e-02" stroke-miterlimit="10" width="120" height="120"></rect><rect x="120" y="240" fill="currentColor" stroke="currentColor" stroke-width="1.000000e-02" stroke-miterlimit="10" width="120" height="120"></rect><rect x="240" y="240" fill="currentColor" stroke="currentColor" stroke-width="1.000000e-02" stroke-miterlimit="10" width="120" height="120"></rect><rect x="360" y="240" fill="currentColor" stroke="currentColor" stroke-width="1.000000e-02" stroke-miterlimit="10" width="120" height="120"></rect><rect x="0" y="360" fill="currentColor" stroke="currentColor" stroke-width="1.000000e-02" stroke-miterlimit="10" width="120" height="120"></rect><rect x="120" y="360" fill="currentColor" stroke="currentColor" stroke-width="1.000000e-02" stroke-miterlimit="10" width="120" height="120"></rect><rect x="240" y="360" fill="currentColor" stroke="currentColor" stroke-width="1.000000e-02" stroke-miterlimit="10" width="120" height="120"></rect><rect x="360" y="360" fill="currentColor" stroke="currentColor" stroke-width="1.000000e-02" stroke-miterlimit="10" width="120" height="120"></rect></g></g></svg></g><path fill="#01427c" fill-rule="nonzero" d="M8.04 18.72L8.04 18.72Q5.62 18.72 3.80 17.63Q1.99 16.54 1.00 14.57Q0 12.60 0 9.96L0 9.96Q0 7.34 0.96 5.39Q1.92 3.43 3.64 2.34Q5.35 1.25 7.63 1.25L7.63 1.25Q8.88 1.25 9.89 1.62Q10.90 1.99 11.62 2.71L11.62 2.71L11.86 1.20L13.03 1.20L13.97 6.79L12.67 7.08Q11.93 4.80 10.76 3.78Q9.60 2.76 7.68 2.76L7.68 2.76Q6.02 2.76 4.88 3.58Q3.74 4.39 3.16 5.99Q2.57 7.58 2.57 9.94L2.57 9.94Q2.57 12.05 3.29 13.66Q4.01 15.26 5.29 16.16Q6.58 17.06 8.28 17.06L8.28 17.06Q9.34 17.06 10.19 16.79Q11.04 16.51 11.77 15.91Q12.50 15.31 13.15 14.38L13.15 14.38L14.28 15.19Q13.63 16.27 12.66 17.06Q11.69 17.86 10.51 18.29Q9.34 18.72 8.04 18.72ZM23.04 18.38L16.58 18.38L16.58 17.21L17.95 16.99Q18.43 16.92 18.56 16.68Q18.70 16.44 18.70 15.77L18.70 15.77L18.70 2.95Q18.70 2.11 18.52 1.86Q18.34 1.61 17.66 1.51L17.66 1.51L16.61 1.34L16.75 0.12L20.66 0L20.93 0.26L20.93 15.86Q20.93 16.46 21.08 16.69Q21.24 16.92 21.70 16.99L21.70 16.99L23.04 17.23L23.04 18.38ZM30.46 18.72L30.46 18.72Q28.70 18.72 27.42 17.95Q26.14 17.18 25.43 15.77Q24.72 14.35 24.72 12.46L24.72 12.46Q24.72 10.46 25.45 8.99Q26.18 7.51 27.50 6.70Q28.82 5.88 30.58 5.88L30.58 5.88Q32.57 5.88 33.78 7.04Q34.99 8.21 34.99 10.13L34.99 10.13Q34.99 10.63 34.91 11.23Q34.82 11.83 34.66 12.48L34.66 12.48L27.14 12.48Q27.22 14.59 28.24 15.77Q29.26 16.94 31.01 16.94L31.01 16.94Q31.92 16.94 32.78 16.56Q33.65 16.18 34.32 15.50L34.32 15.50L35.16 16.34Q34.63 17.06 33.88 17.60Q33.12 18.14 32.24 18.43Q31.37 18.72 30.46 18.72ZM27.14 11.14L27.14 11.14L32.66 11.14Q32.71 10.90 32.72 10.62Q32.74 10.34 32.74 10.03L32.74 10.03Q32.74 8.62 32.12 7.88Q31.51 7.15 30.31 7.15L30.31 7.15Q28.94 7.15 28.14 8.17Q27.34 9.19 27.14 11.14ZM44.28 18.38L41.98 18.38L38.26 8.81Q38.02 8.18 37.86 7.94Q37.70 7.70 37.20 7.58L37.20 7.58L36.36 7.39L36.60 6.22L42.31 6.22L42.31 7.32L41.16 7.49Q40.68 7.56 40.57 7.81Q40.46 8.06 40.70 8.69L40.70 8.69L43.49 16.39L43.61 16.39L46.37 8.86Q46.58 8.23 46.46 7.96Q46.34 7.68 45.82 7.56L45.82 7.56L44.76 7.32L45 6.22L49.99 6.22L49.99 7.34L49.10 7.54Q48.67 7.63 48.48 7.85Q48.29 8.06 48 8.83L48 8.83L44.28 18.38ZM57.12 18.72L57.12 18.72Q55.37 18.72 54.08 17.95Q52.80 17.18 52.09 15.77Q51.38 14.35 51.38 12.46L51.38 12.46Q51.38 10.46 52.12 8.99Q52.85 7.51 54.17 6.70Q55.49 5.88 57.24 5.88L57.24 5.88Q59.23 5.88 60.44 7.04Q61.66 8.21 61.66 10.13L61.66 10.13Q61.66 10.63 61.57 11.23Q61.49 11.83 61.32 12.48L61.32 12.48L53.81 12.48Q53.88 14.59 54.90 15.77Q55.92 16.94 57.67 16.94L57.67 16.94Q58.58 16.94 59.45 16.56Q60.31 16.18 60.98 15.50L60.98 15.50L61.82 16.34Q61.30 17.06 60.54 17.60Q59.78 18.14 58.91 18.43Q58.03 18.72 57.12 18.72ZM53.81 11.14L53.81 11.14L59.33 11.14Q59.38 10.90 59.39 10.62Q59.40 10.34 59.40 10.03L59.40 10.03Q59.40 8.62 58.79 7.88Q58.18 7.15 56.98 7.15L56.98 7.15Q55.61 7.15 54.80 8.17Q54 9.19 53.81 11.14ZM70.73 18.38L64.06 18.38L64.06 17.23L65.21 17.02Q65.59 16.94 65.71 16.72Q65.83 16.49 65.83 15.86L65.83 15.86L65.83 9.14Q65.83 8.28 65.69 8.02Q65.54 7.75 65.02 7.66L65.02 7.66L63.84 7.49L64.01 6.31L67.25 6.05L67.54 6.22L67.80 8.38L67.87 8.38Q69.31 5.88 71.45 5.88L71.45 5.88Q72.58 5.88 73.25 6.50Q73.92 7.13 73.92 8.18L73.92 8.18Q73.92 9.12 73.51 9.60Q73.10 10.08 72.31 10.08L72.31 10.08Q71.64 10.08 71.27 9.80Q70.90 9.53 70.90 9.02L70.90 9.02Q70.90 8.76 71.00 8.42Q71.11 8.09 71.35 7.63L71.35 7.63Q70.82 7.37 70.25 7.55Q69.67 7.73 69.18 8.24Q68.69 8.76 68.38 9.49Q68.06 10.22 68.06 11.04L68.06 11.04L68.06 15.91Q68.06 16.51 68.17 16.69Q68.28 16.87 68.66 16.94L68.66 16.94L70.73 17.26L70.73 18.38ZM81.55 12.46L75.14 12.46L75.14 10.49L81.55 10.49L81.55 12.46ZM91.68 18.38L88.80 18.38L85.15 4.20Q84.98 3.55 84.79 3.32Q84.60 3.10 84.07 3L84.07 3L83.11 2.81L83.11 1.58L89.45 1.58L89.45 2.74L88.22 2.90Q87.74 2.98 87.64 3.22Q87.53 3.46 87.67 4.10L87.67 4.10L90.48 16.32L90.60 16.32L94.46 1.58L97.08 1.58L101.38 16.20L101.50 16.20L104.33 4.25Q104.47 3.60 104.35 3.34Q104.23 3.07 103.75 2.98L103.75 2.98L102.58 2.71L102.58 1.58L108.26 1.58L108.26 2.74L107.14 2.93Q106.66 3 106.42 3.28Q106.18 3.55 106.01 4.22L106.01 4.22L102.38 18.38L99.67 18.38L95.50 3.96L95.42 3.96L91.68 18.38ZM115.63 18.72L115.63 18.72Q113.88 18.72 112.60 17.95Q111.31 17.18 110.60 15.77Q109.90 14.35 109.90 12.46L109.90 12.46Q109.90 10.46 110.63 8.99Q111.36 7.51 112.68 6.70Q114 5.88 115.75 5.88L115.75 5.88Q117.74 5.88 118.96 7.04Q120.17 8.21 120.17 10.13L120.17 10.13Q120.17 10.63 120.08 11.23Q120 11.83 119.83 12.48L119.83 12.48L112.32 12.48Q112.39 14.59 113.41 15.77Q114.43 16.94 116.18 16.94L116.18 16.94Q117.10 16.94 117.96 16.56Q118.82 16.18 119.50 15.50L119.50 15.50L120.34 16.34Q119.81 17.06 119.05 17.60Q118.30 18.14 117.42 18.43Q116.54 18.72 115.63 18.72ZM112.32 11.14L112.32 11.14L117.84 11.14Q117.89 10.90 117.90 10.62Q117.91 10.34 117.91 10.03L117.91 10.03Q117.91 8.62 117.30 7.88Q116.69 7.15 115.49 7.15L115.49 7.15Q114.12 7.15 113.32 8.17Q112.51 9.19 112.32 11.14ZM125.86 18.72L125.86 18.72Q124.34 18.72 123.42 17.83Q122.50 16.94 122.50 15.48L122.50 15.48Q122.50 14.16 123.16 13.34Q123.82 12.53 125.33 12.11Q126.84 11.69 129.38 11.57L129.38 11.57L129.38 9.94Q129.38 8.45 128.76 7.78Q128.14 7.10 126.79 7.10L126.79 7.10Q126.14 7.10 125.51 7.31Q124.87 7.51 124.58 7.82L124.58 7.82Q125.21 8.86 125.21 9.17L125.21 9.17Q125.21 9.62 124.84 9.94Q124.46 10.25 123.91 10.25L123.91 10.25Q123.26 10.25 122.90 9.92Q122.54 9.60 122.54 9L122.54 9Q122.54 8.16 123.18 7.45Q123.82 6.74 124.86 6.31Q125.90 5.88 127.13 5.88L127.13 5.88Q129.41 5.88 130.51 6.94Q131.62 7.99 131.62 10.20L131.62 10.20L131.62 15.98Q131.62 17.04 132.70 17.04L132.70 17.04Q132.96 17.04 133.22 16.99Q133.49 16.94 133.82 16.85L133.82 16.85L134.06 17.76Q133.63 18.17 133.01 18.44Q132.38 18.72 131.86 18.72L131.86 18.72Q130.82 18.72 130.26 18.18Q129.70 17.64 129.58 16.58L129.58 16.58Q128.23 18.72 125.86 18.72ZM126.77 17.06L126.77 17.06Q127.90 17.06 128.64 16.33Q129.38 15.60 129.38 14.52L129.38 14.52L129.38 12.82Q127.06 12.82 125.94 13.40Q124.82 13.99 124.82 15.22L124.82 15.22Q124.82 16.08 125.35 16.57Q125.88 17.06 126.77 17.06ZM140.16 18.72L140.16 18.72Q138.53 18.72 137.75 17.84Q136.97 16.97 136.97 15.14L136.97 15.14L136.97 7.73L135.07 7.73L135.07 6.48Q135.91 6.41 136.46 5.96Q137.02 5.52 137.33 4.60Q137.64 3.67 137.74 2.21L137.74 2.21L138.89 2.06L139.20 2.21L139.20 6.22L142.94 6.22L142.94 7.73L139.20 7.73L139.20 14.98Q139.20 15.98 139.62 16.48Q140.04 16.97 140.90 16.97L140.90 16.97Q141.53 16.97 142.08 16.78Q142.63 16.58 143.21 16.20L143.21 16.20L143.76 17.06Q142.99 17.86 142.06 18.29Q141.12 18.72 140.16 18.72ZM151.08 18.38L145.20 18.38L145.20 17.26L146.30 17.04Q146.71 16.97 146.84 16.73Q146.98 16.49 146.98 15.89L146.98 15.89L146.98 2.93Q146.98 2.09 146.80 1.84Q146.62 1.58 145.94 1.49L145.94 1.49L144.89 1.32L145.03 0.12L148.94 0L149.21 0.26L149.21 7.90L149.21 8.11Q149.59 7.44 150.22 6.94Q150.84 6.43 151.62 6.16Q152.40 5.88 153.22 5.88L153.22 5.88Q154.49 5.88 155.36 6.35Q156.24 6.82 156.70 7.73Q157.15 8.64 157.15 9.98L157.15 9.98L157.15 16.08Q157.15 16.61 157.30 16.79Q157.44 16.97 157.90 17.06L157.90 17.06L159.02 17.26L159.02 18.38L153.14 18.38L153.14 17.28L154.20 17.09Q154.66 16.99 154.79 16.80Q154.92 16.61 154.92 16.08L154.92 16.08L154.92 10.68Q154.92 9.55 154.69 8.88Q154.46 8.21 153.94 7.91Q153.41 7.61 152.52 7.61L152.52 7.61Q151.01 7.61 150.11 8.52Q149.21 9.43 149.21 10.94L149.21 10.94L149.21 15.98Q149.21 16.54 149.33 16.74Q149.45 16.94 149.81 17.02L149.81 17.02L151.08 17.28L151.08 18.38ZM166.61 18.72L166.61 18.72Q164.86 18.72 163.57 17.95Q162.29 17.18 161.58 15.77Q160.87 14.35 160.87 12.46L160.87 12.46Q160.87 10.46 161.60 8.99Q162.34 7.51 163.66 6.70Q164.98 5.88 166.73 5.88L166.73 5.88Q168.72 5.88 169.93 7.04Q171.14 8.21 171.14 10.13L171.14 10.13Q171.14 10.63 171.06 11.23Q170.98 11.83 170.81 12.48L170.81 12.48L163.30 12.48Q163.37 14.59 164.39 15.77Q165.41 16.94 167.16 16.94L167.16 16.94Q168.07 16.94 168.94 16.56Q169.80 16.18 170.47 15.50L170.47 15.50L171.31 16.34Q170.78 17.06 170.03 17.60Q169.27 18.14 168.40 18.43Q167.52 18.72 166.61 18.72ZM163.30 11.14L163.30 11.14L168.82 11.14Q168.86 10.90 168.88 10.62Q168.89 10.34 168.89 10.03L168.89 10.03Q168.89 8.62 168.28 7.88Q167.66 7.15 166.46 7.15L166.46 7.15Q165.10 7.15 164.29 8.17Q163.49 9.19 163.30 11.14ZM180.22 18.38L173.54 18.38L173.54 17.23L174.70 17.02Q175.08 16.94 175.20 16.72Q175.32 16.49 175.32 15.86L175.32 15.86L175.32 9.14Q175.32 8.28 175.18 8.02Q175.03 7.75 174.50 7.66L174.50 7.66L173.33 7.49L173.50 6.31L176.74 6.05L177.02 6.22L177.29 8.38L177.36 8.38Q178.80 5.88 180.94 5.88L180.94 5.88Q182.06 5.88 182.74 6.50Q183.41 7.13 183.41 8.18L183.41 8.18Q183.41 9.12 183 9.60Q182.59 10.08 181.80 10.08L181.80 10.08Q181.13 10.08 180.76 9.80Q180.38 9.53 180.38 9.02L180.38 9.02Q180.38 8.76 180.49 8.42Q180.60 8.09 180.84 7.63L180.84 7.63Q180.31 7.37 179.74 7.55Q179.16 7.73 178.67 8.24Q178.18 8.76 177.86 9.49Q177.55 10.22 177.55 11.04L177.55 11.04L177.55 15.91Q177.55 16.51 177.66 16.69Q177.77 16.87 178.15 16.94L178.15 16.94L180.22 17.26L180.22 18.38Z" transform="translate(0, 52)"></path></svg>